<?xml version="1.0" encoding="UTF-8"?>
<svg id="Layer_1" xmlns="http://www.w3.org/2000/svg" xmlns:xlink="http://www.w3.org/1999/xlink" version="1.1" viewBox="0 0 500 500">
  <!-- Generator: Adobe Illustrator 29.3.1, SVG Export Plug-In . SVG Version: 2.1.0 Build 151)  -->
  <defs>
    <style>
      .st0 {
        filter: url(#drop-shadow-2);
      }

      .st1 {
        fill: #fff;
      }

      .st2 {
        fill: #bc002d;
        filter: url(#drop-shadow-1);
      }
    </style>
    <filter id="drop-shadow-1" x="16.3" y="16.9" width="466.8" height="466.8" filterUnits="userSpaceOnUse">
      <feOffset dx="-22" dy="45"/>
      <feGaussianBlur result="blur" stdDeviation="6"/>
      <feFlood flood-color="#3a0a0a" flood-opacity=".3"/>
      <feComposite in2="blur" operator="in"/>
      <feComposite in="SourceGraphic"/>
    </filter>
    <filter id="drop-shadow-2" x="98.5" y="142.9" width="336.9" height="224.9" filterUnits="userSpaceOnUse">
      <feOffset dx="-1" dy="4"/>
      <feGaussianBlur result="blur1" stdDeviation="8"/>
      <feFlood flood-color="#770e0e" flood-opacity=".4"/>
      <feComposite in2="blur1" operator="in"/>
      <feComposite in="SourceGraphic"/>
    </filter>
  </defs>
  <circle class="st2" cx="249.7" cy="250.3" r="233.4"/>
  <g class="st0">
    <g>
      <path class="st1" d="M380.7,252.4c-30.2,0-54.7-24.6-54.7-54.7s24.6-54.7,54.7-54.7,54.7,24.6,54.7,54.7-24.6,54.7-54.7,54.7ZM380.7,148.5c-27.1,0-49.2,22.1-49.2,49.2s22.1,49.2,49.2,49.2,49.2-22.1,49.2-49.2-22.1-49.2-49.2-49.2Z"/>
      <g>
        <path class="st1" d="M398.4,170.8h-12.7v1.6c-.1,0,11,0,11,0l-2.1,16.2h-4.9l5.8,8.7h-4.1l-7-8.1-.6,8.5h-3.4l-.7-8.5-7,8.1h-4.1l5.7-8.7h-5.3l-2.2-16.2h11.5l-.2-1.6h-12.8l-1-6.4h13.3l-.2-1.8h8.7l-.2,1.8h13.3l-1,6.4ZM378.8,177.6h-5.9v1.7h6l-.2-1.7ZM379.2,182.5h-6.2v2.1h6.4l-.2-2.1ZM384.9,182.5v2.1c-.1,0,5.9,0,5.9,0v-2.1h-5.9ZM385.2,177.6v1.7c-.1,0,5.6,0,5.6,0v-1.7s-5.6,0-5.6,0Z"/>
        <path class="st1" d="M364.1,204.6h13.4l-.3-3.4h9.5l-.3,3.4h13.3l-.8,6.2h-33.9l-.9-6.2ZM395.7,212.4l-1.2,13h-9.8l-1.1,10.8h-3l-1-10.8h-10.3l-1.2-13h27.5ZM368.7,235.5l1.2-8.4h4.8l-2.7,8.4h-3.3ZM390.3,217.4h-16.3v4.1h16.2v-4.1ZM394.2,227.1l1.2,8.4h-3.4l-3.2-8.4h5.4Z"/>
      </g>
      <g>
        <g>
          <path class="st1" d="M214.3,200.5l-11.4,1.7v-18.8l34-4.9v68.8h-22.6v-46.7Z"/>
          <path class="st1" d="M255.4,200.5l-11.4,1.7v-18.8l34-4.9v68.8h-22.6v-46.7Z"/>
          <path class="st1" d="M298,265.3c-2-.3-4-.9-6-1.7v-14.8c1.8.7,3.9,1.1,6.3,1.1s4.5-.3,5.8-.8c1.3-.5,2.6-1.6,3.7-3.1l-22.6-48.5h23.7l10.2,27.1,9.8-27.1h23.6l-17.8,44.5c-3.1,7.8-6.9,13.7-11.5,17.8-4.6,4.1-10.4,6.1-17.3,6.1s-5.8-.2-7.8-.5Z"/>
          <path class="st1" d="M167.5,157.7h-31.3l-34.3,89.5h31.1l3.8-14.9c1.8-6.9,8-11.7,15.1-11.7s13.2,4.8,15,11.6l3.9,14.9h31.1l-34.5-89.5ZM152,214.9c-7.3,0-13.2-5.9-13.2-13.2s5.9-13.2,13.2-13.2,13.2,5.9,13.2,13.2-5.9,13.2-13.2,13.2Z"/>
        </g>
        <g>
          <path class="st1" d="M116.6,277.8h-18.1v-16.5h58.9v16.5h-18.2v51.2h-22.6v-51.2Z"/>
          <path class="st1" d="M154.9,323.6c-5-4.3-7.5-10.8-7.5-19.5,0-17.3,10.1-26,30.2-26s30.4,8.7,30.4,26-10.1,26-30.4,26-17.7-2.2-22.7-6.5ZM170.3,309.6c1.5,1.2,4,1.7,7.5,1.7s5.9-.6,7.4-1.8c1.5-1.2,2.3-3.1,2.3-5.6s-.8-4.3-2.3-5.5c-1.5-1.1-4-1.7-7.4-1.7s-6,.6-7.5,1.7c-1.5,1.1-2.2,2.9-2.2,5.5s.7,4.5,2.2,5.6Z"/>
          <path class="st1" d="M214.3,258.1h22.6v33l11.5-12h25.6l-19.8,21.4,20.8,28.5h-24l-10.9-16.7-3.2,3.4v13.4h-22.6v-70.9Z"/>
          <path class="st1" d="M287.4,347.1c-2-.3-4-.9-6-1.7v-14.8c1.8.7,3.9,1.1,6.3,1.1s4.5-.3,5.8-.8c1.3-.5,2.6-1.6,3.7-3.1l-22.6-48.5h23.7l10.2,27.1,9.8-27.1h23.6l-17.8,44.5c-3.1,7.8-6.9,13.7-11.5,17.8-4.6,4.1-10.4,6.1-17.3,6.1s-5.8-.2-7.8-.5Z"/>
          <path class="st1" d="M346.6,323.6c-5-4.3-7.5-10.8-7.5-19.5,0-17.3,10.1-26,30.2-26s30.4,8.7,30.4,26-10.1,26-30.4,26-17.7-2.2-22.7-6.5ZM362,309.6c1.5,1.2,4,1.7,7.5,1.7s5.9-.6,7.4-1.8c1.5-1.2,2.3-3.1,2.3-5.6s-.8-4.3-2.3-5.5c-1.5-1.1-4-1.7-7.4-1.7s-6,.6-7.5,1.7c-1.5,1.1-2.2,2.9-2.2,5.5s.7,4.5,2.2,5.6Z"/>
        </g>
        <g>
          <path class="st1" d="M116.6,361.8v-18.6h3.1c.6,0,1,.3,1.2.9l.3,1.2c.3-.3.7-.6,1-.9.3-.3.7-.5,1.1-.7.4-.2.8-.4,1.3-.5.5-.1,1-.2,1.5-.2,1.1,0,2.1.3,2.8.9.7.6,1.3,1.4,1.7,2.4.3-.6.7-1.1,1.1-1.5.4-.4.9-.8,1.4-1s1.1-.5,1.7-.6c.6-.1,1.2-.2,1.8-.2,1,0,2,.2,2.8.5s1.5.8,2,1.4c.5.6,1,1.3,1.3,2.2.3.9.4,1.9.4,3v11.8h-5v-11.8c0-2.2-.9-3.3-2.8-3.3s-.8,0-1.2.2-.7.3-.9.6c-.3.3-.5.6-.6,1-.2.4-.2.9-.2,1.4v11.8h-5v-11.8c0-1.2-.2-2-.7-2.5-.5-.5-1.1-.7-2-.7s-1.1.1-1.6.4c-.5.3-1,.6-1.4,1.1v13.5h-5Z"/>
          <path class="st1" d="M157.5,353.3c.2,1.7.7,3,1.5,3.8.8.8,1.9,1.2,3.3,1.2s1.3,0,1.8-.2c.5-.2.9-.3,1.3-.5.4-.2.7-.4,1-.5.3-.2.6-.2.9-.2s.7.1.9.4l1.4,1.8c-.5.6-1.1,1.1-1.7,1.5-.6.4-1.3.7-2,1-.7.2-1.4.4-2.1.5-.7,0-1.4.1-2,.1-1.3,0-2.5-.2-3.6-.6-1.1-.4-2.1-1.1-2.9-1.9-.8-.8-1.5-1.9-2-3.1-.5-1.2-.7-2.7-.7-4.3s.2-2.5.6-3.6c.4-1.1,1-2.1,1.8-2.9.8-.8,1.7-1.5,2.8-2,1.1-.5,2.4-.7,3.8-.7s2.3.2,3.3.6c1,.4,1.9.9,2.6,1.6.7.7,1.3,1.6,1.7,2.7.4,1.1.6,2.2.6,3.6s0,.7,0,.9c0,.2,0,.4-.2.6,0,.1-.2.2-.3.3-.1,0-.3,0-.6,0h-11.1ZM165.3,350.3c0-.5,0-1-.2-1.5-.1-.5-.4-.9-.7-1.2-.3-.4-.7-.6-1.1-.9-.5-.2-1-.3-1.6-.3-1.2,0-2.1.3-2.8,1-.7.7-1.1,1.6-1.3,2.9h7.7Z"/>
          <path class="st1" d="M183.3,353.3c.2,1.7.7,3,1.5,3.8.8.8,1.9,1.2,3.3,1.2s1.3,0,1.8-.2c.5-.2.9-.3,1.3-.5.4-.2.7-.4,1-.5.3-.2.6-.2.9-.2s.7.1.9.4l1.4,1.8c-.5.6-1.1,1.1-1.7,1.5-.6.4-1.3.7-2,1-.7.2-1.4.4-2.1.5-.7,0-1.4.1-2,.1-1.3,0-2.5-.2-3.6-.6-1.1-.4-2.1-1.1-2.9-1.9-.8-.8-1.5-1.9-2-3.1-.5-1.2-.7-2.7-.7-4.3s.2-2.5.6-3.6c.4-1.1,1-2.1,1.8-2.9.8-.8,1.7-1.5,2.8-2,1.1-.5,2.4-.7,3.8-.7s2.3.2,3.3.6c1,.4,1.9.9,2.6,1.6.7.7,1.3,1.6,1.7,2.7.4,1.1.6,2.2.6,3.6s0,.7,0,.9c0,.2,0,.4-.2.6,0,.1-.2.2-.3.3-.1,0-.3,0-.6,0h-11.1ZM191.1,350.3c0-.5,0-1-.2-1.5-.1-.5-.4-.9-.7-1.2-.3-.4-.7-.6-1.1-.9-.5-.2-1-.3-1.6-.3-1.2,0-2.1.3-2.8,1-.7.7-1.1,1.6-1.3,2.9h7.7Z"/>
          <path class="st1" d="M211.3,362.1c-.8,0-1.6-.1-2.2-.4-.6-.2-1.2-.6-1.6-1.1-.4-.5-.8-1-1-1.7-.2-.6-.3-1.4-.3-2.2v-10h-1.7c-.3,0-.5,0-.7-.3-.2-.2-.3-.4-.3-.8v-1.9l3-.5,1-4.8c.1-.5.5-.8,1.1-.8h2.6v5.7h4.8v3.5h-4.8v9.7c0,.5.1.9.4,1.2.2.3.6.5,1.1.5s.4,0,.6,0,.3-.1.4-.2c.1,0,.2-.1.3-.2s.2,0,.3,0,.3,0,.4,0,.2.2.3.3l1.5,2.4c-.7.5-1.5.9-2.3,1.2-.9.3-1.8.4-2.7.4Z"/>
          <path class="st1" d="M241.3,343.2v18.6h-3.1c-.6,0-1-.3-1.2-.9l-.3-1.3c-.4.4-.8.7-1.2,1s-.8.6-1.3.8c-.5.2-.9.4-1.5.5-.5.1-1.1.2-1.7.2-1,0-1.9-.2-2.7-.5-.8-.3-1.4-.8-2-1.5-.5-.6-.9-1.4-1.2-2.2-.3-.9-.4-1.8-.4-2.8v-11.8h5v11.8c0,1,.2,1.8.7,2.4s1.2.9,2.1.9,1.4-.2,2-.5c.6-.3,1.2-.7,1.7-1.3v-13.4h5Z"/>
          <path class="st1" d="M256.6,345.6c.4-.4.8-.8,1.2-1.1.4-.3.9-.6,1.4-.9.5-.2,1-.4,1.5-.6s1.2-.2,1.8-.2c1,0,1.9.2,2.7.6.8.4,1.6,1,2.2,1.9.6.8,1.1,1.8,1.4,3,.3,1.2.5,2.5.5,4s-.2,2.7-.6,3.9c-.4,1.2-.9,2.2-1.6,3.1-.7.9-1.5,1.5-2.5,2-1,.5-2.1.7-3.3.7s-1.9-.2-2.6-.5c-.7-.3-1.3-.7-1.9-1.2v7.4h-5v-24.6h3.1c.6,0,1,.3,1.2.9l.4,1.6ZM256.9,356.9c.5.5,1,.9,1.5,1.1.5.2,1.1.3,1.8.3s1.1-.1,1.6-.3c.5-.2.9-.6,1.3-1.1.4-.5.6-1.1.8-1.9.2-.8.3-1.7.3-2.7s0-1.9-.2-2.6c-.2-.7-.4-1.3-.7-1.7-.3-.4-.7-.8-1.1-1s-.9-.3-1.4-.3c-.9,0-1.6.2-2.2.5-.6.3-1.2.8-1.7,1.5v8.1Z"/>
        </g>
      </g>
    </g>
  </g>
</svg>